<ttFont>
    <TTGlyph name=".notdef" xMin="193" yMin="0" xMax="1034" yMax="1462">
      <contour>
        <pt x="193" y="1462" on="1"/>
        <pt x="1034" y="1462" on="1"/>
        <pt x="1034" y="0" on="1"/>
        <pt x="193" y="0" on="1"/>
      </contour>
      <contour>
        <pt x="297" y="104" on="1"/>
        <pt x="930" y="104" on="1"/>
        <pt x="930" y="1358" on="1"/>
        <pt x="297" y="1358" on="1"/>
      </contour>
    </TTGlyph>
    <TTGlyph name="glyph00004" xMin="137" yMin="0" xMax="1491" yMax="1462">
      <contour>
        <pt x="735" y="0" on="1"/>
        <pt x="735" y="436" on="1"/>
        <pt x="735" y="600" on="0"/>
        <pt x="756" y="659" on="1"/>
        <pt x="748" y="664" on="1"/>
        <pt x="728" y="633" on="0"/>
        <pt x="620" y="525" on="0"/>
        <pt x="578" y="494" on="1"/>
        <pt x="236" y="215" on="1"/>
        <pt x="143" y="342" on="1"/>
        <pt x="506" y="635" on="1"/>
        <pt x="545" y="667" on="0"/>
        <pt x="671" y="729" on="0"/>
        <pt x="735" y="748" on="1"/>
        <pt x="735" y="756" on="1"/>
        <pt x="615" y="780" on="0"/>
        <pt x="506" y="866" on="1"/>
        <pt x="137" y="1161" on="1"/>
        <pt x="236" y="1284" on="1"/>
        <pt x="578" y="1010" on="1"/>
        <pt x="620" y="977" on="0"/>
        <pt x="728" y="866" on="0"/>
        <pt x="748" y="838" on="1"/>
        <pt x="756" y="842" on="1"/>
        <pt x="747" y="868" on="0"/>
        <pt x="735" y="996" on="0"/>
        <pt x="735" y="1065" on="1"/>
        <pt x="735" y="1462" on="1"/>
        <pt x="895" y="1462" on="1"/>
        <pt x="895" y="1065" on="1"/>
        <pt x="895" y="1006" on="0"/>
        <pt x="881" y="868" on="0"/>
        <pt x="872" y="842" on="1"/>
        <pt x="881" y="838" on="1"/>
        <pt x="905" y="870" on="0"/>
        <pt x="1016" y="982" on="0"/>
        <pt x="1053" y="1010" on="1"/>
        <pt x="1393" y="1284" on="1"/>
        <pt x="1491" y="1161" on="1"/>
        <pt x="1124" y="866" on="1"/>
        <pt x="1013" y="780" on="0"/>
        <pt x="895" y="756" on="1"/>
        <pt x="895" y="748" on="1"/>
        <pt x="954" y="731" on="0"/>
        <pt x="1083" y="667" on="0"/>
        <pt x="1124" y="635" on="1"/>
        <pt x="1485" y="342" on="1"/>
        <pt x="1393" y="215" on="1"/>
        <pt x="1053" y="494" on="1"/>
        <pt x="1012" y="525" on="0"/>
        <pt x="906" y="628" on="0"/>
        <pt x="881" y="664" on="1"/>
        <pt x="872" y="659" on="1"/>
        <pt x="881" y="634" on="0"/>
        <pt x="895" y="495" on="0"/>
        <pt x="895" y="436" on="1"/>
        <pt x="895" y="0" on="1"/>
      </contour>
    </TTGlyph>
    <TTGlyph name="glyph00005" xMin="137" yMin="0" xMax="1491" yMax="1462">
      <contour>
        <pt x="924" y="780" on="1"/>
        <pt x="1089" y="825" on="0"/>
        <pt x="1288" y="825" on="1"/>
        <pt x="1466" y="825" on="1"/>
        <pt x="1466" y="684" on="1"/>
        <pt x="1288" y="684" on="1"/>
        <pt x="1094" y="684" on="0"/>
        <pt x="922" y="723" on="1"/>
        <pt x="922" y="715" on="1"/>
        <pt x="973" y="703" on="0"/>
        <pt x="1177" y="594" on="0"/>
        <pt x="1231" y="549" on="1"/>
        <pt x="1485" y="342" on="1"/>
        <pt x="1393" y="215" on="1"/>
        <pt x="1053" y="494" on="1"/>
        <pt x="1012" y="525" on="0"/>
        <pt x="906" y="628" on="0"/>
        <pt x="881" y="664" on="1"/>
        <pt x="872" y="659" on="1"/>
        <pt x="881" y="634" on="0"/>
        <pt x="895" y="495" on="0"/>
        <pt x="895" y="436" on="1"/>
        <pt x="895" y="0" on="1"/>
        <pt x="735" y="0" on="1"/>
        <pt x="735" y="436" on="1"/>
        <pt x="735" y="600" on="0"/>
        <pt x="756" y="659" on="1"/>
        <pt x="748" y="664" on="1"/>
        <pt x="728" y="633" on="0"/>
        <pt x="620" y="525" on="0"/>
        <pt x="578" y="494" on="1"/>
        <pt x="236" y="215" on="1"/>
        <pt x="143" y="342" on="1"/>
        <pt x="506" y="635" on="1"/>
        <pt x="545" y="667" on="0"/>
        <pt x="671" y="729" on="0"/>
        <pt x="735" y="748" on="1"/>
        <pt x="735" y="756" on="1"/>
        <pt x="615" y="780" on="0"/>
        <pt x="506" y="866" on="1"/>
        <pt x="137" y="1161" on="1"/>
        <pt x="236" y="1284" on="1"/>
        <pt x="578" y="1010" on="1"/>
        <pt x="620" y="977" on="0"/>
        <pt x="728" y="866" on="0"/>
        <pt x="748" y="838" on="1"/>
        <pt x="756" y="842" on="1"/>
        <pt x="747" y="868" on="0"/>
        <pt x="735" y="996" on="0"/>
        <pt x="735" y="1065" on="1"/>
        <pt x="735" y="1462" on="1"/>
        <pt x="895" y="1462" on="1"/>
        <pt x="895" y="1065" on="1"/>
        <pt x="895" y="1006" on="0"/>
        <pt x="881" y="868" on="0"/>
        <pt x="872" y="842" on="1"/>
        <pt x="881" y="838" on="1"/>
        <pt x="905" y="870" on="0"/>
        <pt x="1016" y="982" on="0"/>
        <pt x="1053" y="1010" on="1"/>
        <pt x="1393" y="1284" on="1"/>
        <pt x="1491" y="1161" on="1"/>
        <pt x="1231" y="952" on="1"/>
        <pt x="1181" y="911" on="0"/>
        <pt x="971" y="799" on="0"/>
        <pt x="924" y="791" on="1"/>
      </contour>
    </TTGlyph>
    <TTGlyph name="glyph00006" xMin="137" yMin="-20" xMax="1288" yMax="1462">
      <contour>
        <pt x="246" y="1071" on="1"/>
        <pt x="516" y="809" on="1"/>
        <pt x="604" y="721" on="0"/>
        <pt x="651" y="635" on="1"/>
        <pt x="659" y="635" on="1"/>
        <pt x="635" y="810" on="0"/>
        <pt x="635" y="1020" on="1"/>
        <pt x="635" y="1462" on="1"/>
        <pt x="795" y="1462" on="1"/>
        <pt x="795" y="1020" on="1"/>
        <pt x="795" y="802" on="0"/>
        <pt x="770" y="635" on="1"/>
        <pt x="778" y="635" on="1"/>
        <pt x="837" y="737" on="0"/>
        <pt x="911" y="809" on="1"/>
        <pt x="1182" y="1071" on="1"/>
        <pt x="1288" y="963" on="1"/>
        <pt x="842" y="520" on="1"/>
        <pt x="1286" y="90" on="1"/>
        <pt x="1176" y="-20" on="1"/>
        <pt x="715" y="428" on="1"/>
        <pt x="258" y="-20" on="1"/>
        <pt x="147" y="92" on="1"/>
        <pt x="590" y="520" on="1"/>
        <pt x="137" y="965" on="1"/>
      </contour>
    </TTGlyph>
    <TTGlyph name="glyph00007" xMin="162" yMin="0" xMax="1380" yMax="1487">
      <contour>
        <pt x="707" y="756" on="1"/>
        <pt x="162" y="1378" on="1"/>
        <pt x="287" y="1487" on="1"/>
        <pt x="766" y="922" on="1"/>
        <pt x="1257" y="1485" on="1"/>
        <pt x="1380" y="1376" on="1"/>
        <pt x="838" y="756" on="1"/>
      </contour>
      <contour>
        <pt x="1257" y="913" on="1"/>
        <pt x="1380" y="805" on="1"/>
        <pt x="803" y="141" on="1"/>
        <pt x="1255" y="141" on="1"/>
        <pt x="1255" y="0" on="1"/>
        <pt x="287" y="0" on="1"/>
        <pt x="287" y="141" on="1"/>
        <pt x="743" y="141" on="1"/>
        <pt x="162" y="807" on="1"/>
        <pt x="287" y="915" on="1"/>
        <pt x="766" y="348" on="1"/>
      </contour>
    </TTGlyph>
    <TTGlyph name="glyph00008" xMin="70" yMin="0" xMax="1669" yMax="1462">
      <contour>
        <pt x="782" y="0" on="1"/>
        <pt x="782" y="950" on="1"/>
        <pt x="463" y="1270" on="1"/>
        <pt x="180" y="987" on="1"/>
        <pt x="70" y="1094" on="1"/>
        <pt x="442" y="1462" on="1"/>
        <pt x="494" y="1462" on="1"/>
        <pt x="868" y="1087" on="1"/>
        <pt x="1245" y="1462" on="1"/>
        <pt x="1294" y="1462" on="1"/>
        <pt x="1669" y="1094" on="1"/>
        <pt x="1559" y="987" on="1"/>
        <pt x="1278" y="1268" on="1"/>
        <pt x="942" y="944" on="1"/>
        <pt x="942" y="0" on="1"/>
      </contour>
    </TTGlyph>
    <TTGlyph name="glyph00009" xMin="137" yMin="0" xMax="1049" yMax="1489">
      <contour>
        <pt x="553" y="0" on="1"/>
        <pt x="352" y="221" on="0"/>
        <pt x="137" y="688" on="0"/>
        <pt x="137" y="924" on="1"/>
        <pt x="137" y="1096" on="0"/>
        <pt x="243" y="1352" on="0"/>
        <pt x="449" y="1489" on="0"/>
        <pt x="594" y="1489" on="1"/>
        <pt x="809" y="1489" on="0"/>
        <pt x="1049" y="1192" on="0"/>
        <pt x="1049" y="924" on="1"/>
        <pt x="1049" y="689" on="0"/>
        <pt x="835" y="222" on="0"/>
        <pt x="633" y="0" on="1"/>
      </contour>
      <contour>
        <pt x="297" y="924" on="1"/>
        <pt x="297" y="718" on="0"/>
        <pt x="453" y="331" on="0"/>
        <pt x="594" y="168" on="1"/>
        <pt x="737" y="333" on="0"/>
        <pt x="891" y="721" on="0"/>
        <pt x="891" y="924" on="1"/>
        <pt x="891" y="1128" on="0"/>
        <pt x="739" y="1341" on="0"/>
        <pt x="594" y="1341" on="1"/>
        <pt x="449" y="1341" on="0"/>
        <pt x="297" y="1125" on="0"/>
      </contour>
    </TTGlyph>
    <TTGlyph name="glyph00010" xMin="70" yMin="344" xMax="1952" yMax="1114">
      <contour>
        <pt x="1487" y="487" on="1"/>
        <pt x="1493" y="477" on="1"/>
        <pt x="1576" y="487" on="0"/>
        <pt x="1716" y="487" on="1"/>
        <pt x="1823" y="487" on="1"/>
        <pt x="1823" y="344" on="1"/>
        <pt x="1044" y="344" on="1"/>
        <pt x="1044" y="487" on="1"/>
        <pt x="1176" y="487" on="1"/>
        <pt x="1295" y="487" on="0"/>
        <pt x="1389" y="477" on="1"/>
        <pt x="1393" y="487" on="1"/>
        <pt x="1340" y="529" on="0"/>
        <pt x="1266" y="621" on="1"/>
        <pt x="1024" y="920" on="1"/>
        <pt x="629" y="463" on="1"/>
        <pt x="514" y="463" on="1"/>
        <pt x="70" y="1014" on="1"/>
        <pt x="190" y="1114" on="1"/>
        <pt x="586" y="635" on="1"/>
        <pt x="987" y="1114" on="1"/>
        <pt x="1069" y="1114" on="1"/>
        <pt x="1452" y="651" on="1"/>
        <pt x="1837" y="1114" on="1"/>
        <pt x="1952" y="1014" on="1"/>
        <pt x="1618" y="623" on="1"/>
        <pt x="1527" y="514" on="0"/>
      </contour>
    </TTGlyph>
    <TTGlyph name="glyph00011" xMin="137" yMin="0" xMax="1288" yMax="1483">
      <contour>
        <pt x="1180" y="0" on="1"/>
        <pt x="244" y="0" on="1"/>
        <pt x="244" y="141" on="1"/>
        <pt x="633" y="141" on="1"/>
        <pt x="633" y="901" on="1"/>
        <pt x="633" y="1077" on="0"/>
        <pt x="647" y="1264" on="1"/>
        <pt x="639" y="1264" on="1"/>
        <pt x="599" y="1191" on="0"/>
        <pt x="516" y="1112" on="1"/>
        <pt x="244" y="848" on="1"/>
        <pt x="137" y="956" on="1"/>
        <pt x="666" y="1483" on="1"/>
        <pt x="758" y="1483" on="1"/>
        <pt x="1288" y="954" on="1"/>
        <pt x="1180" y="848" on="1"/>
        <pt x="911" y="1112" on="1"/>
        <pt x="818" y="1205" on="0"/>
        <pt x="782" y="1264" on="1"/>
        <pt x="774" y="1264" on="1"/>
        <pt x="781" y="1184" on="1"/>
        <pt x="793" y="1039" on="0"/>
        <pt x="793" y="901" on="1"/>
        <pt x="793" y="141" on="1"/>
        <pt x="1180" y="141" on="1"/>
      </contour>
    </TTGlyph>
    <TTGlyph name="glyph00012" xMin="137" yMin="-20" xMax="1090" yMax="1491">
      <contour>
        <pt x="485" y="477" on="1"/>
        <pt x="137" y="733" on="1"/>
        <pt x="233" y="860" on="1"/>
        <pt x="578" y="600" on="1"/>
        <pt x="717" y="786" on="1"/>
        <pt x="383" y="1042" on="1"/>
        <pt x="477" y="1167" on="1"/>
        <pt x="813" y="905" on="1"/>
        <pt x="891" y="1008" on="1"/>
        <pt x="926" y="1051" on="0"/>
        <pt x="926" y="1092" on="1"/>
        <pt x="926" y="1147" on="0"/>
        <pt x="858" y="1198" on="1"/>
        <pt x="639" y="1364" on="1"/>
        <pt x="737" y="1491" on="1"/>
        <pt x="961" y="1319" on="1"/>
        <pt x="1090" y="1217" on="0"/>
        <pt x="1090" y="1106" on="1"/>
        <pt x="1090" y="1021" on="0"/>
        <pt x="1018" y="928" on="1"/>
        <pt x="698" y="506" on="1"/>
        <pt x="1030" y="258" on="1"/>
        <pt x="934" y="131" on="1"/>
        <pt x="604" y="383" on="1"/>
        <pt x="299" y="-20" on="1"/>
        <pt x="178" y="82" on="1"/>
      </contour>
    </TTGlyph>
    <TTGlyph name="glyph00013" xMin="137" yMin="0" xMax="1350" yMax="1462">
      <contour>
        <pt x="909" y="0" on="1"/>
        <pt x="324" y="0" on="1"/>
        <pt x="324" y="141" on="1"/>
        <pt x="539" y="141" on="1"/>
        <pt x="539" y="727" on="1"/>
        <pt x="137" y="1130" on="1"/>
        <pt x="248" y="1243" on="1"/>
        <pt x="621" y="870" on="1"/>
        <pt x="997" y="1245" on="1"/>
        <pt x="1047" y="1245" on="1"/>
        <pt x="1350" y="950" on="1"/>
        <pt x="1239" y="844" on="1"/>
        <pt x="1030" y="1051" on="1"/>
        <pt x="698" y="733" on="1"/>
        <pt x="698" y="141" on="1"/>
        <pt x="909" y="141" on="1"/>
      </contour>
      <contour>
        <pt x="909" y="1321" on="1"/>
        <pt x="324" y="1321" on="1"/>
        <pt x="324" y="1462" on="1"/>
        <pt x="909" y="1462" on="1"/>
      </contour>
    </TTGlyph>
    <TTGlyph name="glyph00014" xMin="162" yMin="-6" xMax="1319" yMax="1462">
      <contour>
        <pt x="317" y="-6" on="1"/>
        <pt x="162" y="6" on="1"/>
        <pt x="371" y="1462" on="1"/>
        <pt x="1110" y="1462" on="1"/>
        <pt x="1319" y="6" on="1"/>
        <pt x="1161" y="-6" on="1"/>
        <pt x="973" y="1319" on="1"/>
        <pt x="506" y="1319" on="1"/>
      </contour>
    </TTGlyph>
    <TTGlyph name="glyph00015" xMin="137" yMin="0" xMax="1288" yMax="1483">
      <contour>
        <pt x="670" y="1122" on="1"/>
        <pt x="397" y="1386" on="1"/>
        <pt x="496" y="1481" on="1"/>
        <pt x="715" y="1278" on="1"/>
        <pt x="932" y="1483" on="1"/>
        <pt x="1028" y="1386" on="1"/>
        <pt x="758" y="1122" on="1"/>
      </contour>
      <contour>
        <pt x="1180" y="240" on="1"/>
        <pt x="1007" y="409" on="0"/>
        <pt x="829" y="584" on="0"/>
        <pt x="774" y="676" on="1"/>
        <pt x="766" y="676" on="1"/>
        <pt x="793" y="477" on="0"/>
        <pt x="793" y="293" on="1"/>
        <pt x="793" y="0" on="1"/>
        <pt x="633" y="0" on="1"/>
        <pt x="633" y="293" on="1"/>
        <pt x="633" y="514" on="0"/>
        <pt x="655" y="676" on="1"/>
        <pt x="647" y="676" on="1"/>
        <pt x="593" y="577" on="0"/>
        <pt x="516" y="504" on="1"/>
        <pt x="244" y="240" on="1"/>
        <pt x="137" y="348" on="1"/>
        <pt x="586" y="793" on="1"/>
        <pt x="168" y="1198" on="1"/>
        <pt x="279" y="1311" on="1"/>
        <pt x="713" y="883" on="1"/>
        <pt x="1149" y="1313" on="1"/>
        <pt x="1260" y="1198" on="1"/>
        <pt x="838" y="793" on="1"/>
        <pt x="1288" y="346" on="1"/>
      </contour>
    </TTGlyph>
    <TTGlyph name="glyph00016" xMin="70" yMin="344" xMax="1538" yMax="1112">
      <contour>
        <pt x="713" y="487" on="1"/>
        <pt x="719" y="477" on="1"/>
        <pt x="802" y="487" on="0"/>
        <pt x="932" y="487" on="1"/>
        <pt x="1038" y="487" on="1"/>
        <pt x="1038" y="344" on="1"/>
        <pt x="258" y="344" on="1"/>
        <pt x="258" y="487" on="1"/>
        <pt x="391" y="487" on="1"/>
        <pt x="498" y="487" on="0"/>
        <pt x="594" y="477" on="1"/>
        <pt x="598" y="487" on="1"/>
        <pt x="563" y="509" on="0"/>
        <pt x="507" y="555" on="0"/>
        <pt x="453" y="612" on="1"/>
        <pt x="70" y="999" on="1"/>
        <pt x="180" y="1112" on="1"/>
        <pt x="655" y="635" on="1"/>
        <pt x="1133" y="1112" on="1"/>
        <pt x="1182" y="1112" on="1"/>
        <pt x="1538" y="770" on="1"/>
        <pt x="1427" y="664" on="1"/>
        <pt x="1165" y="918" on="1"/>
        <pt x="838" y="596" on="1"/>
        <pt x="790" y="550" on="0"/>
        <pt x="747" y="512" on="0"/>
      </contour>
    </TTGlyph>
    <TTGlyph name="glyph00017" xMin="137" yMin="-20" xMax="1004" yMax="1479">
      <contour>
        <pt x="1004" y="379" on="1"/>
        <pt x="1004" y="258" on="0"/>
        <pt x="893" y="77" on="0"/>
        <pt x="692" y="-20" on="0"/>
        <pt x="571" y="-20" on="1"/>
        <pt x="449" y="-20" on="0"/>
        <pt x="248" y="79" on="0"/>
        <pt x="137" y="259" on="0"/>
        <pt x="137" y="379" on="1"/>
        <pt x="137" y="500" on="0"/>
        <pt x="285" y="691" on="0"/>
        <pt x="420" y="743" on="1"/>
        <pt x="271" y="835" on="0"/>
        <pt x="160" y="1005" on="0"/>
        <pt x="160" y="1122" on="1"/>
        <pt x="160" y="1225" on="0"/>
        <pt x="271" y="1388" on="0"/>
        <pt x="466" y="1479" on="0"/>
        <pt x="578" y="1479" on="1"/>
        <pt x="688" y="1479" on="0"/>
        <pt x="875" y="1390" on="0"/>
        <pt x="981" y="1228" on="0"/>
        <pt x="981" y="1122" on="1"/>
        <pt x="981" y="1017" on="0"/>
        <pt x="845" y="829" on="0"/>
        <pt x="721" y="764" on="1"/>
        <pt x="850" y="713" on="0"/>
        <pt x="1004" y="503" on="0"/>
      </contour>
      <contour>
        <pt x="838" y="371" on="1"/>
        <pt x="838" y="599" on="0"/>
        <pt x="569" y="705" on="1"/>
        <pt x="303" y="604" on="0"/>
        <pt x="303" y="371" on="1"/>
        <pt x="303" y="258" on="0"/>
        <pt x="449" y="125" on="0"/>
        <pt x="567" y="125" on="1"/>
        <pt x="689" y="125" on="0"/>
        <pt x="838" y="256" on="0"/>
      </contour>
      <contour>
        <pt x="817" y="1120" on="1"/>
        <pt x="817" y="1214" on="0"/>
        <pt x="676" y="1335" on="0"/>
        <pt x="571" y="1335" on="1"/>
        <pt x="469" y="1335" on="0"/>
        <pt x="324" y="1215" on="0"/>
        <pt x="324" y="1122" on="1"/>
        <pt x="324" y="1020" on="0"/>
        <pt x="450" y="865" on="0"/>
        <pt x="569" y="805" on="1"/>
        <pt x="817" y="929" on="0"/>
      </contour>
    </TTGlyph>
    <TTGlyph name="glyph00018" xMin="92" yMin="0" xMax="1135" yMax="1489">
      <contour>
        <pt x="1135" y="0" on="1"/>
        <pt x="92" y="0" on="1"/>
        <pt x="92" y="141" on="1"/>
        <pt x="1135" y="141" on="1"/>
      </contour>
      <contour>
        <pt x="952" y="1399" on="1"/>
        <pt x="287" y="487" on="1"/>
        <pt x="1135" y="487" on="1"/>
        <pt x="1135" y="344" on="1"/>
        <pt x="92" y="344" on="1"/>
        <pt x="92" y="487" on="1"/>
        <pt x="827" y="1489" on="1"/>
      </contour>
    </TTGlyph>
    <TTGlyph name="glyph00019" xMin="92" yMin="0" xMax="1083" yMax="1462">
      <contour>
        <pt x="1083" y="735" on="1"/>
        <pt x="666" y="735" on="1"/>
        <pt x="666" y="0" on="1"/>
        <pt x="508" y="0" on="1"/>
        <pt x="508" y="735" on="1"/>
        <pt x="92" y="735" on="1"/>
        <pt x="92" y="877" on="1"/>
        <pt x="508" y="877" on="1"/>
        <pt x="508" y="1462" on="1"/>
        <pt x="666" y="1462" on="1"/>
        <pt x="666" y="877" on="1"/>
        <pt x="1083" y="877" on="1"/>
      </contour>
    </TTGlyph>
    <TTGlyph name="glyph00020" xMin="137" yMin="-12" xMax="1550" yMax="1491">
      <contour>
        <pt x="831" y="1346" on="1"/>
        <pt x="345" y="1346" on="0"/>
        <pt x="319" y="621" on="1"/>
        <pt x="297" y="-4" on="1"/>
        <pt x="137" y="4" on="1"/>
        <pt x="162" y="621" on="1"/>
        <pt x="177" y="1041" on="0"/>
        <pt x="517" y="1491" on="0"/>
        <pt x="817" y="1491" on="1"/>
        <pt x="866" y="1491" on="1"/>
        <pt x="1164" y="1491" on="0"/>
        <pt x="1501" y="1039" on="0"/>
        <pt x="1522" y="614" on="1"/>
        <pt x="1550" y="4" on="1"/>
        <pt x="1391" y="-4" on="1"/>
        <pt x="1360" y="614" on="1"/>
        <pt x="1323" y="1346" on="0"/>
      </contour>
      <contour>
        <pt x="662" y="621" on="1"/>
        <pt x="662" y="388" on="0"/>
        <pt x="693" y="218" on="0"/>
        <pt x="763" y="131" on="0"/>
        <pt x="827" y="131" on="1"/>
        <pt x="892" y="131" on="0"/>
        <pt x="968" y="224" on="0"/>
        <pt x="1001" y="416" on="0"/>
        <pt x="1001" y="621" on="1"/>
        <pt x="1159" y="621" on="1"/>
        <pt x="1159" y="376" on="0"/>
        <pt x="1089" y="112" on="0"/>
        <pt x="948" y="-12" on="0"/>
        <pt x="842" y="-12" on="1"/>
        <pt x="821" y="-12" on="1"/>
        <pt x="714" y="-12" on="0"/>
        <pt x="572" y="113" on="0"/>
        <pt x="504" y="379" on="0"/>
        <pt x="504" y="621" on="1"/>
      </contour>
    </TTGlyph>
    <TTGlyph name="glyph00021" xMin="115" yMin="-10" xMax="1589" yMax="1483">
      <contour>
        <pt x="236" y="-10" on="1"/>
        <pt x="115" y="88" on="1"/>
        <pt x="578" y="741" on="1"/>
        <pt x="233" y="1253" on="1"/>
        <pt x="365" y="1343" on="1"/>
        <pt x="735" y="793" on="1"/>
        <pt x="735" y="690" on="1"/>
      </contour>
      <contour>
        <pt x="969" y="690" on="1"/>
        <pt x="969" y="793" on="1"/>
        <pt x="1333" y="1343" on="1"/>
        <pt x="1462" y="1251" on="1"/>
        <pt x="1128" y="741" on="1"/>
        <pt x="1589" y="88" on="1"/>
        <pt x="1468" y="-10" on="1"/>
      </contour>
      <contour>
        <pt x="811" y="942" on="1"/>
        <pt x="508" y="1397" on="1"/>
        <pt x="631" y="1481" on="1"/>
        <pt x="858" y="1141" on="1"/>
        <pt x="1079" y="1483" on="1"/>
        <pt x="1212" y="1395" on="1"/>
        <pt x="909" y="942" on="1"/>
      </contour>
    </TTGlyph>
    <TTGlyph name="glyph00022" xMin="115" yMin="-20" xMax="1610" yMax="1487">
      <contour>
        <pt x="862" y="918" on="1"/>
        <pt x="1362" y="1487" on="1"/>
        <pt x="1491" y="1393" on="1"/>
        <pt x="973" y="799" on="1"/>
        <pt x="1610" y="74" on="1"/>
        <pt x="1481" y="-20" on="1"/>
        <pt x="862" y="678" on="1"/>
        <pt x="244" y="-20" on="1"/>
        <pt x="115" y="74" on="1"/>
        <pt x="752" y="799" on="1"/>
        <pt x="233" y="1393" on="1"/>
        <pt x="362" y="1487" on="1"/>
      </contour>
      <contour>
        <pt x="936" y="412" on="1"/>
        <pt x="936" y="291" on="0"/>
        <pt x="967" y="189" on="0"/>
        <pt x="1041" y="145" on="0"/>
        <pt x="1124" y="145" on="1"/>
        <pt x="1161" y="145" on="1"/>
        <pt x="1161" y="0" on="1"/>
        <pt x="1124" y="0" on="1"/>
        <pt x="980" y="0" on="0"/>
        <pt x="836" y="69" on="0"/>
        <pt x="776" y="233" on="0"/>
        <pt x="776" y="406" on="1"/>
        <pt x="776" y="465" on="1"/>
        <pt x="936" y="465" on="1"/>
      </contour>
    </TTGlyph>
    <TTGlyph name="glyph00023" xMin="70" yMin="344" xMax="1837" yMax="1112">
      <contour>
        <pt x="1010" y="487" on="1"/>
        <pt x="1016" y="477" on="1"/>
        <pt x="1096" y="487" on="0"/>
        <pt x="1229" y="487" on="1"/>
        <pt x="1335" y="487" on="1"/>
        <pt x="1335" y="344" on="1"/>
        <pt x="555" y="344" on="1"/>
        <pt x="555" y="487" on="1"/>
        <pt x="688" y="487" on="1"/>
        <pt x="795" y="487" on="0"/>
        <pt x="891" y="477" on="1"/>
        <pt x="895" y="487" on="1"/>
        <pt x="828" y="530" on="0"/>
        <pt x="750" y="612" on="1"/>
        <pt x="444" y="918" on="1"/>
        <pt x="176" y="666" on="1"/>
        <pt x="70" y="770" on="1"/>
        <pt x="428" y="1112" on="1"/>
        <pt x="479" y="1112" on="1"/>
        <pt x="954" y="635" on="1"/>
        <pt x="1432" y="1112" on="1"/>
        <pt x="1481" y="1112" on="1"/>
        <pt x="1837" y="770" on="1"/>
        <pt x="1726" y="664" on="1"/>
        <pt x="1464" y="918" on="1"/>
        <pt x="1135" y="596" on="1"/>
        <pt x="1087" y="550" on="0"/>
        <pt x="1044" y="512" on="0"/>
      </contour>
    </TTGlyph>
    <TTGlyph name="glyph00024" xMin="115" yMin="295" xMax="1610" yMax="1247">
      <contour>
        <pt x="862" y="295" on="1"/>
        <pt x="515" y="295" on="0"/>
        <pt x="115" y="545" on="0"/>
        <pt x="115" y="772" on="1"/>
        <pt x="115" y="916" on="0"/>
        <pt x="287" y="1128" on="0"/>
        <pt x="633" y="1247" on="0"/>
        <pt x="862" y="1247" on="1"/>
        <pt x="1091" y="1247" on="0"/>
        <pt x="1438" y="1129" on="0"/>
        <pt x="1610" y="916" on="0"/>
        <pt x="1610" y="772" on="1"/>
        <pt x="1610" y="545" on="0"/>
        <pt x="1209" y="295" on="0"/>
      </contour>
      <contour>
        <pt x="1452" y="772" on="1"/>
        <pt x="1452" y="916" on="0"/>
        <pt x="1168" y="1095" on="0"/>
        <pt x="940" y="1106" on="1"/>
        <pt x="940" y="434" on="1"/>
        <pt x="1183" y="453" on="0"/>
        <pt x="1452" y="631" on="0"/>
      </contour>
      <contour>
        <pt x="274" y="772" on="1"/>
        <pt x="274" y="630" on="0"/>
        <pt x="551" y="448" on="0"/>
        <pt x="780" y="434" on="1"/>
        <pt x="780" y="1106" on="1"/>
        <pt x="550" y="1095" on="0"/>
        <pt x="274" y="916" on="0"/>
      </contour>
    </TTGlyph>
    <TTGlyph name="glyph00025" xMin="184" yMin="127" xMax="1485" yMax="1368">
      <contour>
        <pt x="936" y="743" on="1"/>
        <pt x="1011" y="701" on="0"/>
        <pt x="1145" y="569" on="1"/>
        <pt x="1485" y="236" on="1"/>
        <pt x="1370" y="127" on="1"/>
        <pt x="834" y="645" on="1"/>
        <pt x="297" y="127" on="1"/>
        <pt x="184" y="236" on="1"/>
        <pt x="518" y="563" on="1"/>
        <pt x="642" y="685" on="0"/>
        <pt x="731" y="743" on="1"/>
        <pt x="731" y="752" on="1"/>
        <pt x="657" y="791" on="0"/>
        <pt x="528" y="920" on="1"/>
        <pt x="186" y="1255" on="1"/>
        <pt x="297" y="1368" on="1"/>
        <pt x="834" y="850" on="1"/>
        <pt x="1370" y="1368" on="1"/>
        <pt x="1481" y="1255" on="1"/>
        <pt x="1123" y="904" on="0"/>
        <pt x="990" y="779" on="0"/>
        <pt x="936" y="752" on="1"/>
      </contour>
      <contour>
        <pt x="1481" y="537" on="1"/>
        <pt x="1323" y="537" on="1"/>
        <pt x="1323" y="954" on="1"/>
        <pt x="1481" y="954" on="1"/>
      </contour>
      <contour>
        <pt x="344" y="537" on="1"/>
        <pt x="186" y="537" on="1"/>
        <pt x="186" y="954" on="1"/>
        <pt x="344" y="954" on="1"/>
      </contour>
    </TTGlyph>
    <TTGlyph name="glyph00026" xMin="137" yMin="0" xMax="1126" yMax="1462">
      <contour>
        <pt x="1126" y="920" on="1"/>
        <pt x="707" y="920" on="1"/>
        <pt x="707" y="0" on="1"/>
        <pt x="547" y="0" on="1"/>
        <pt x="547" y="920" on="1"/>
        <pt x="137" y="920" on="1"/>
        <pt x="137" y="1061" on="1"/>
        <pt x="1126" y="1061" on="1"/>
      </contour>
      <contour>
        <pt x="1126" y="1321" on="1"/>
        <pt x="137" y="1321" on="1"/>
        <pt x="137" y="1462" on="1"/>
        <pt x="1126" y="1462" on="1"/>
      </contour>
    </TTGlyph>
    <TTGlyph name="glyph00027" xMin="137" yMin="-20" xMax="1120" yMax="1503">
      <contour>
        <pt x="137" y="334" on="1"/>
        <pt x="137" y="1141" on="1"/>
        <pt x="293" y="1141" on="1"/>
        <pt x="293" y="334" on="1"/>
      </contour>
      <contour>
        <pt x="965" y="334" on="1"/>
        <pt x="965" y="1141" on="1"/>
        <pt x="1120" y="1141" on="1"/>
        <pt x="1120" y="334" on="1"/>
      </contour>
      <contour>
        <pt x="393" y="952" on="1"/>
        <pt x="393" y="1017" on="0"/>
        <pt x="424" y="1085" on="1"/>
        <pt x="604" y="1503" on="1"/>
        <pt x="752" y="1450" on="1"/>
        <pt x="578" y="1047" on="1"/>
        <pt x="559" y="1015" on="0"/>
        <pt x="559" y="971" on="1"/>
        <pt x="559" y="934" on="0"/>
        <pt x="599" y="880" on="0"/>
        <pt x="653" y="858" on="1"/>
        <pt x="702" y="838" on="1"/>
        <pt x="879" y="761" on="0"/>
        <pt x="879" y="608" on="1"/>
        <pt x="879" y="548" on="0"/>
        <pt x="848" y="475" on="1"/>
        <pt x="629" y="-20" on="1"/>
        <pt x="481" y="33" on="1"/>
        <pt x="696" y="514" on="1"/>
        <pt x="715" y="554" on="0"/>
        <pt x="715" y="590" on="1"/>
        <pt x="715" y="627" on="0"/>
        <pt x="672" y="678" on="0"/>
        <pt x="618" y="702" on="1"/>
        <pt x="569" y="723" on="1"/>
        <pt x="393" y="799" on="0"/>
      </contour>
    </TTGlyph>
    <TTGlyph name="glyph00028" xMin="92" yMin="0" xMax="1266" yMax="1491">
      <contour>
        <pt x="1266" y="0" on="1"/>
        <pt x="94" y="0" on="1"/>
        <pt x="94" y="141" on="1"/>
        <pt x="272" y="141" on="1"/>
        <pt x="428" y="342" on="1"/>
        <pt x="92" y="596" on="1"/>
        <pt x="188" y="721" on="1"/>
        <pt x="524" y="465" on="1"/>
        <pt x="731" y="735" on="1"/>
        <pt x="403" y="991" on="1"/>
        <pt x="502" y="1116" on="1"/>
        <pt x="829" y="862" on="1"/>
        <pt x="946" y="1010" on="1"/>
        <pt x="981" y="1053" on="0"/>
        <pt x="981" y="1094" on="1"/>
        <pt x="981" y="1149" on="0"/>
        <pt x="915" y="1198" on="1"/>
        <pt x="696" y="1364" on="1"/>
        <pt x="795" y="1491" on="1"/>
        <pt x="1018" y="1319" on="1"/>
        <pt x="1147" y="1217" on="0"/>
        <pt x="1147" y="1106" on="1"/>
        <pt x="1147" y="1028" on="0"/>
        <pt x="1073" y="928" on="1"/>
        <pt x="473" y="141" on="1"/>
        <pt x="1266" y="141" on="1"/>
      </contour>
    </TTGlyph>
    <TTGlyph name="glyph00029" xMin="137" yMin="-8" xMax="1466" yMax="1497">
      <contour>
        <pt x="283" y="109" on="1"/>
        <pt x="137" y="172" on="1"/>
        <pt x="528" y="1069" on="1"/>
        <pt x="543" y="1101" on="0"/>
        <pt x="543" y="1133" on="1"/>
        <pt x="543" y="1208" on="0"/>
        <pt x="451" y="1247" on="1"/>
        <pt x="205" y="1354" on="1"/>
        <pt x="270" y="1497" on="1"/>
        <pt x="526" y="1386" on="1"/>
        <pt x="709" y="1308" on="0"/>
        <pt x="709" y="1157" on="1"/>
        <pt x="709" y="1088" on="0"/>
        <pt x="676" y="1020" on="1"/>
      </contour>
      <contour>
        <pt x="1073" y="1130" on="1"/>
        <pt x="1136" y="1130" on="0"/>
        <pt x="1210" y="1100" on="1"/>
        <pt x="1466" y="985" on="1"/>
        <pt x="1399" y="842" on="1"/>
        <pt x="1153" y="944" on="1"/>
        <pt x="1113" y="961" on="0"/>
        <pt x="1079" y="961" on="1"/>
        <pt x="1003" y="961" on="0"/>
        <pt x="969" y="879" on="1"/>
        <pt x="586" y="-8" on="1"/>
        <pt x="440" y="55" on="1"/>
        <pt x="831" y="952" on="1"/>
        <pt x="867" y="1034" on="0"/>
        <pt x="996" y="1130" on="0"/>
      </contour>
    </TTGlyph>
    <TTGlyph name="glyph00030" xMin="137" yMin="-6" xMax="1102" yMax="1487">
      <contour>
        <pt x="842" y="815" on="1"/>
        <pt x="842" y="655" on="1"/>
        <pt x="268" y="-6" on="1"/>
        <pt x="147" y="98" on="1"/>
        <pt x="696" y="735" on="1"/>
        <pt x="137" y="1382" on="1"/>
        <pt x="258" y="1487" on="1"/>
      </contour>
      <contour>
        <pt x="942" y="811" on="1"/>
        <pt x="942" y="1462" on="1"/>
        <pt x="1102" y="1462" on="1"/>
        <pt x="1102" y="811" on="1"/>
      </contour>
      <contour>
        <pt x="942" y="0" on="1"/>
        <pt x="942" y="651" on="1"/>
        <pt x="1102" y="651" on="1"/>
        <pt x="1102" y="0" on="1"/>
      </contour>
    </TTGlyph>
    <TTGlyph name="glyph00031" xMin="184" yMin="0" xMax="1176" yMax="1462">
      <contour>
        <pt x="1176" y="526" on="1"/>
        <pt x="758" y="526" on="1"/>
        <pt x="758" y="0" on="1"/>
        <pt x="600" y="0" on="1"/>
        <pt x="600" y="526" on="1"/>
        <pt x="184" y="526" on="1"/>
        <pt x="184" y="668" on="1"/>
        <pt x="600" y="668" on="1"/>
        <pt x="600" y="944" on="1"/>
        <pt x="184" y="944" on="1"/>
        <pt x="184" y="1085" on="1"/>
        <pt x="600" y="1085" on="1"/>
        <pt x="600" y="1462" on="1"/>
        <pt x="758" y="1462" on="1"/>
        <pt x="758" y="1085" on="1"/>
        <pt x="1176" y="1085" on="1"/>
        <pt x="1176" y="944" on="1"/>
        <pt x="758" y="944" on="1"/>
        <pt x="758" y="668" on="1"/>
        <pt x="1176" y="668" on="1"/>
      </contour>
    </TTGlyph>
    <TTGlyph name="glyph00032" xMin="150" yMin="-20" xMax="637" yMax="1503">
      <contour>
        <pt x="150" y="952" on="1"/>
        <pt x="150" y="1010" on="0"/>
        <pt x="182" y="1085" on="1"/>
        <pt x="360" y="1503" on="1"/>
        <pt x="510" y="1450" on="1"/>
        <pt x="334" y="1047" on="1"/>
        <pt x="317" y="1011" on="0"/>
        <pt x="317" y="971" on="1"/>
        <pt x="317" y="934" on="0"/>
        <pt x="358" y="883" on="0"/>
        <pt x="412" y="858" on="1"/>
        <pt x="459" y="838" on="1"/>
        <pt x="637" y="759" on="0"/>
        <pt x="637" y="608" on="1"/>
        <pt x="637" y="544" on="0"/>
        <pt x="606" y="475" on="1"/>
        <pt x="387" y="-20" on="1"/>
        <pt x="238" y="33" on="1"/>
        <pt x="453" y="514" on="1"/>
        <pt x="473" y="557" on="0"/>
        <pt x="473" y="590" on="1"/>
        <pt x="473" y="627" on="0"/>
        <pt x="429" y="678" on="0"/>
        <pt x="377" y="702" on="1"/>
        <pt x="328" y="723" on="1"/>
        <pt x="150" y="799" on="0"/>
      </contour>
    </TTGlyph>
    <TTGlyph name="glyph00033" xMin="162" yMin="0" xMax="1380" yMax="1487">
      <contour>
        <pt x="1257" y="770" on="1"/>
        <pt x="1380" y="662" on="1"/>
        <pt x="803" y="0" on="1"/>
        <pt x="743" y="0" on="1"/>
        <pt x="162" y="664" on="1"/>
        <pt x="287" y="772" on="1"/>
        <pt x="766" y="207" on="1"/>
      </contour>
      <contour>
        <pt x="707" y="756" on="1"/>
        <pt x="162" y="1378" on="1"/>
        <pt x="287" y="1487" on="1"/>
        <pt x="766" y="922" on="1"/>
        <pt x="1257" y="1485" on="1"/>
        <pt x="1380" y="1376" on="1"/>
        <pt x="838" y="756" on="1"/>
      </contour>
    </TTGlyph>
    <TTGlyph name="glyph00034" xMin="162" yMin="-20" xMax="1001" yMax="1483">
      <contour>
        <pt x="524" y="641" on="1"/>
        <pt x="320" y="742" on="0"/>
        <pt x="162" y="943" on="0"/>
        <pt x="162" y="1090" on="1"/>
        <pt x="162" y="1191" on="0"/>
        <pt x="270" y="1375" on="0"/>
        <pt x="454" y="1483" on="0"/>
        <pt x="561" y="1483" on="1"/>
        <pt x="689" y="1483" on="0"/>
        <pt x="887" y="1399" on="0"/>
        <pt x="1001" y="1296" on="1"/>
        <pt x="911" y="1169" on="1"/>
        <pt x="818" y="1253" on="0"/>
        <pt x="638" y="1337" on="0"/>
        <pt x="559" y="1337" on="1"/>
        <pt x="502" y="1337" on="0"/>
        <pt x="396" y="1272" on="0"/>
        <pt x="330" y="1157" on="0"/>
        <pt x="330" y="1094" on="1"/>
        <pt x="330" y="1014" on="0"/>
        <pt x="391" y="913" on="0"/>
        <pt x="540" y="810" on="0"/>
        <pt x="737" y="715" on="1"/>
        <pt x="403" y="-20" on="1"/>
        <pt x="254" y="43" on="1"/>
      </contour>
    </TTGlyph>
    <TTGlyph name="glyph00035" xMin="92" yMin="266" xMax="1626" yMax="1257">
      <contour>
        <pt x="936" y="872" on="1"/>
        <pt x="936" y="701" on="0"/>
        <pt x="920" y="541" on="1"/>
        <pt x="928" y="537" on="1"/>
        <pt x="959" y="592" on="0"/>
        <pt x="1057" y="657" on="1"/>
        <pt x="1440" y="924" on="1"/>
        <pt x="1208" y="1139" on="1"/>
        <pt x="1317" y="1257" on="1"/>
        <pt x="1626" y="967" on="1"/>
        <pt x="1626" y="870" on="1"/>
        <pt x="1128" y="522" on="1"/>
        <pt x="1028" y="454" on="0"/>
        <pt x="930" y="414" on="1"/>
        <pt x="936" y="403" on="1"/>
        <pt x="980" y="414" on="0"/>
        <pt x="1223" y="414" on="1"/>
        <pt x="1358" y="414" on="1"/>
        <pt x="1358" y="266" on="1"/>
        <pt x="362" y="266" on="1"/>
        <pt x="362" y="414" on="1"/>
        <pt x="569" y="414" on="1"/>
        <pt x="734" y="414" on="0"/>
        <pt x="782" y="403" on="1"/>
        <pt x="788" y="414" on="1"/>
        <pt x="681" y="460" on="0"/>
        <pt x="592" y="522" on="1"/>
        <pt x="92" y="870" on="1"/>
        <pt x="92" y="967" on="1"/>
        <pt x="401" y="1257" on="1"/>
        <pt x="508" y="1139" on="1"/>
        <pt x="279" y="926" on="1"/>
        <pt x="659" y="657" on="1"/>
        <pt x="755" y="589" on="0"/>
        <pt x="782" y="537" on="1"/>
        <pt x="793" y="541" on="1"/>
        <pt x="776" y="711" on="0"/>
        <pt x="776" y="872" on="1"/>
        <pt x="776" y="961" on="1"/>
        <pt x="936" y="961" on="1"/>
      </contour>
    </TTGlyph>
    <TTGlyph name="glyph00036" xMin="92" yMin="0" xMax="1317" yMax="1489">
      <contour>
        <pt x="92" y="0" on="1"/>
        <pt x="92" y="141" on="1"/>
        <pt x="530" y="141" on="1"/>
        <pt x="390" y="330" on="0"/>
        <pt x="248" y="728" on="0"/>
        <pt x="248" y="924" on="1"/>
        <pt x="248" y="1096" on="0"/>
        <pt x="354" y="1352" on="0"/>
        <pt x="560" y="1489" on="0"/>
        <pt x="705" y="1489" on="1"/>
        <pt x="920" y="1489" on="0"/>
        <pt x="1159" y="1191" on="0"/>
        <pt x="1159" y="924" on="1"/>
        <pt x="1159" y="526" on="0"/>
        <pt x="874" y="141" on="1"/>
        <pt x="1317" y="141" on="1"/>
        <pt x="1317" y="0" on="1"/>
      </contour>
      <contour>
        <pt x="406" y="924" on="1"/>
        <pt x="406" y="721" on="0"/>
        <pt x="558" y="315" on="0"/>
        <pt x="705" y="145" on="1"/>
        <pt x="849" y="314" on="0"/>
        <pt x="1004" y="719" on="0"/>
        <pt x="1004" y="924" on="1"/>
        <pt x="1004" y="1126" on="0"/>
        <pt x="852" y="1341" on="0"/>
        <pt x="705" y="1341" on="1"/>
        <pt x="559" y="1341" on="0"/>
        <pt x="406" y="1127" on="0"/>
      </contour>
    </TTGlyph>
    <TTGlyph name="glyph00037" xMin="115" yMin="0" xMax="1505" yMax="1483">
      <contour>
        <pt x="516" y="762" on="1"/>
        <pt x="674" y="762" on="1"/>
        <pt x="674" y="0" on="1"/>
        <pt x="516" y="0" on="1"/>
      </contour>
      <contour>
        <pt x="805" y="1276" on="1"/>
        <pt x="240" y="614" on="1"/>
        <pt x="115" y="723" on="1"/>
        <pt x="780" y="1483" on="1"/>
        <pt x="840" y="1483" on="1"/>
        <pt x="1505" y="723" on="1"/>
        <pt x="1382" y="614" on="1"/>
      </contour>
      <contour>
        <pt x="946" y="762" on="1"/>
        <pt x="1106" y="762" on="1"/>
        <pt x="1106" y="0" on="1"/>
        <pt x="946" y="0" on="1"/>
      </contour>
    </TTGlyph>
    <TTGlyph name="glyph00038" xMin="92" yMin="-12" xMax="1360" yMax="1491">
      <contour>
        <pt x="561" y="-12" on="1"/>
        <pt x="92" y="334" on="1"/>
        <pt x="188" y="461" on="1"/>
        <pt x="530" y="201" on="1"/>
        <pt x="844" y="602" on="1"/>
        <pt x="506" y="864" on="1"/>
        <pt x="600" y="989" on="1"/>
        <pt x="936" y="727" on="1"/>
        <pt x="1157" y="1012" on="1"/>
        <pt x="1192" y="1055" on="0"/>
        <pt x="1192" y="1096" on="1"/>
        <pt x="1192" y="1156" on="0"/>
        <pt x="1126" y="1204" on="1"/>
        <pt x="907" y="1368" on="1"/>
        <pt x="1008" y="1491" on="1"/>
        <pt x="1231" y="1319" on="1"/>
        <pt x="1360" y="1217" on="0"/>
        <pt x="1360" y="1106" on="1"/>
        <pt x="1360" y="1021" on="0"/>
        <pt x="1286" y="928" on="1"/>
      </contour>
    </TTGlyph>
    <TTGlyph name="glyph00039" xMin="115" yMin="-23" xMax="1120" yMax="1503">
      <contour>
        <pt x="115" y="106" on="1"/>
        <pt x="338" y="258" on="0"/>
        <pt x="510" y="430" on="1"/>
        <pt x="352" y="609" on="0"/>
        <pt x="184" y="943" on="0"/>
        <pt x="184" y="1079" on="1"/>
        <pt x="184" y="1207" on="0"/>
        <pt x="289" y="1401" on="0"/>
        <pt x="477" y="1503" on="0"/>
        <pt x="598" y="1503" on="1"/>
        <pt x="718" y="1503" on="0"/>
        <pt x="907" y="1400" on="0"/>
        <pt x="1012" y="1207" on="0"/>
        <pt x="1012" y="1079" on="1"/>
        <pt x="1012" y="807" on="0"/>
        <pt x="711" y="440" on="1"/>
        <pt x="913" y="238" on="0"/>
        <pt x="1120" y="106" on="1"/>
        <pt x="1032" y="-23" on="1"/>
        <pt x="813" y="117" on="0"/>
        <pt x="608" y="326" on="1"/>
        <pt x="406" y="109" on="0"/>
        <pt x="207" y="-23" on="1"/>
      </contour>
      <contour>
        <pt x="338" y="1079" on="1"/>
        <pt x="338" y="856" on="0"/>
        <pt x="614" y="543" on="1"/>
        <pt x="856" y="827" on="0"/>
        <pt x="856" y="1079" on="1"/>
        <pt x="856" y="1207" on="0"/>
        <pt x="719" y="1348" on="0"/>
        <pt x="598" y="1348" on="1"/>
        <pt x="476" y="1348" on="0"/>
        <pt x="338" y="1208" on="0"/>
      </contour>
    </TTGlyph>
    <TTGlyph name="glyph00040" xMin="137" yMin="-162" xMax="1532" yMax="1485">
      <contour>
        <pt x="1085" y="-162" on="1"/>
        <pt x="739" y="358" on="1"/>
        <pt x="872" y="449" on="1"/>
        <pt x="1223" y="-76" on="1"/>
      </contour>
      <contour>
        <pt x="1159" y="739" on="1"/>
        <pt x="1159" y="517" on="0"/>
        <pt x="1359" y="185" on="0"/>
        <pt x="1532" y="119" on="1"/>
        <pt x="1466" y="-6" on="1"/>
        <pt x="1331" y="42" on="0"/>
        <pt x="1118" y="260" on="0"/>
        <pt x="997" y="566" on="0"/>
        <pt x="997" y="739" on="1"/>
        <pt x="997" y="911" on="0"/>
        <pt x="1116" y="1217" on="0"/>
        <pt x="1330" y="1436" on="0"/>
        <pt x="1466" y="1485" on="1"/>
        <pt x="1532" y="1360" on="1"/>
        <pt x="1359" y="1293" on="0"/>
        <pt x="1159" y="961" on="0"/>
      </contour>
      <contour>
        <pt x="510" y="739" on="1"/>
        <pt x="510" y="962" on="0"/>
        <pt x="310" y="1293" on="0"/>
        <pt x="137" y="1360" on="1"/>
        <pt x="203" y="1485" on="1"/>
        <pt x="338" y="1436" on="0"/>
        <pt x="552" y="1219" on="0"/>
        <pt x="672" y="912" on="0"/>
        <pt x="672" y="739" on="1"/>
        <pt x="672" y="567" on="0"/>
        <pt x="552" y="260" on="0"/>
        <pt x="339" y="44" on="0"/>
        <pt x="203" y="-6" on="1"/>
        <pt x="137" y="119" on="1"/>
        <pt x="310" y="186" on="0"/>
        <pt x="510" y="518" on="0"/>
      </contour>
    </TTGlyph>
    <TTGlyph name="glyph00041" xMin="115" yMin="0" xMax="1235" yMax="1464">
      <contour>
        <pt x="791" y="0" on="1"/>
        <pt x="563" y="0" on="1"/>
        <pt x="115" y="1415" on="1"/>
        <pt x="279" y="1464" on="1"/>
        <pt x="563" y="590" on="1"/>
        <pt x="604" y="468" on="0"/>
        <pt x="670" y="205" on="0"/>
        <pt x="678" y="127" on="1"/>
        <pt x="688" y="127" on="1"/>
        <pt x="700" y="213" on="0"/>
        <pt x="766" y="471" on="0"/>
        <pt x="803" y="584" on="1"/>
        <pt x="1079" y="1464" on="1"/>
        <pt x="1235" y="1409" on="1"/>
      </contour>
    </TTGlyph>
    <TTGlyph name="glyph00042" xMin="231" yMin="0" xMax="1217" yMax="1462">
      <contour>
        <pt x="1217" y="920" on="1"/>
        <pt x="391" y="920" on="1"/>
        <pt x="391" y="0" on="1"/>
        <pt x="231" y="0" on="1"/>
        <pt x="231" y="1462" on="1"/>
        <pt x="391" y="1462" on="1"/>
        <pt x="391" y="1061" on="1"/>
        <pt x="649" y="1061" on="1"/>
        <pt x="649" y="1462" on="1"/>
        <pt x="809" y="1462" on="1"/>
        <pt x="809" y="1061" on="1"/>
        <pt x="1057" y="1061" on="1"/>
        <pt x="1057" y="1462" on="1"/>
        <pt x="1217" y="1462" on="1"/>
      </contour>
    </TTGlyph>
    <TTGlyph name="glyph00043" xMin="115" yMin="0" xMax="1505" yMax="1483">
      <contour>
        <pt x="885" y="813" on="1"/>
        <pt x="885" y="637" on="0"/>
        <pt x="983" y="494" on="0"/>
        <pt x="1112" y="494" on="1"/>
        <pt x="1278" y="494" on="1"/>
        <pt x="1278" y="344" on="1"/>
        <pt x="1112" y="344" on="1"/>
        <pt x="948" y="344" on="0"/>
        <pt x="798" y="433" on="0"/>
        <pt x="727" y="637" on="0"/>
        <pt x="727" y="809" on="1"/>
        <pt x="727" y="950" on="1"/>
        <pt x="885" y="950" on="1"/>
      </contour>
      <contour>
        <pt x="1278" y="0" on="1"/>
        <pt x="315" y="0" on="1"/>
        <pt x="315" y="141" on="1"/>
        <pt x="1278" y="141" on="1"/>
      </contour>
      <contour>
        <pt x="805" y="1276" on="1"/>
        <pt x="240" y="614" on="1"/>
        <pt x="115" y="723" on="1"/>
        <pt x="780" y="1483" on="1"/>
        <pt x="840" y="1483" on="1"/>
        <pt x="1505" y="723" on="1"/>
        <pt x="1382" y="614" on="1"/>
      </contour>
    </TTGlyph>
    <TTGlyph name="glyph00044" xMin="162" yMin="0" xMax="1380" yMax="1487">
      <contour>
        <pt x="514" y="350" on="1"/>
        <pt x="663" y="350" on="0"/>
        <pt x="723" y="338" on="1"/>
        <pt x="725" y="344" on="1"/>
        <pt x="671" y="370" on="0"/>
        <pt x="561" y="494" on="1"/>
        <pt x="162" y="952" on="1"/>
        <pt x="279" y="1055" on="1"/>
        <pt x="766" y="485" on="1"/>
        <pt x="1268" y="1061" on="1"/>
        <pt x="1380" y="950" on="1"/>
        <pt x="979" y="494" on="1"/>
        <pt x="888" y="389" on="0"/>
        <pt x="811" y="344" on="1"/>
        <pt x="813" y="338" on="1"/>
        <pt x="891" y="350" on="0"/>
        <pt x="1026" y="350" on="1"/>
        <pt x="1255" y="350" on="1"/>
        <pt x="1255" y="215" on="1"/>
        <pt x="287" y="215" on="1"/>
        <pt x="287" y="350" on="1"/>
      </contour>
      <contour>
        <pt x="1255" y="135" on="1"/>
        <pt x="1255" y="0" on="1"/>
        <pt x="287" y="0" on="1"/>
        <pt x="287" y="135" on="1"/>
      </contour>
      <contour>
        <pt x="707" y="766" on="1"/>
        <pt x="166" y="1382" on="1"/>
        <pt x="287" y="1487" on="1"/>
        <pt x="766" y="922" on="1"/>
        <pt x="1257" y="1485" on="1"/>
        <pt x="1372" y="1382" on="1"/>
        <pt x="838" y="766" on="1"/>
      </contour>
    </TTGlyph>
    <TTGlyph name="glyph00045" xMin="184" yMin="-8" xMax="1747" yMax="1485">
      <contour>
        <pt x="885" y="12" on="1"/>
        <pt x="1182" y="823" on="1"/>
        <pt x="1178" y="834" on="1"/>
        <pt x="1130" y="823" on="0"/>
        <pt x="965" y="823" on="1"/>
        <pt x="801" y="823" on="1"/>
        <pt x="801" y="965" on="1"/>
        <pt x="1192" y="965" on="1"/>
        <pt x="1192" y="1462" on="1"/>
        <pt x="1352" y="1462" on="1"/>
        <pt x="1352" y="965" on="1"/>
        <pt x="1747" y="965" on="1"/>
        <pt x="1747" y="823" on="1"/>
        <pt x="1610" y="823" on="1"/>
        <pt x="1412" y="823" on="0"/>
        <pt x="1368" y="834" on="1"/>
        <pt x="1362" y="823" on="1"/>
        <pt x="1659" y="12" on="1"/>
        <pt x="1491" y="-8" on="1"/>
        <pt x="1337" y="424" on="1"/>
        <pt x="1321" y="471" on="0"/>
        <pt x="1277" y="645" on="0"/>
        <pt x="1274" y="674" on="1"/>
        <pt x="1266" y="674" on="1"/>
        <pt x="1263" y="643" on="0"/>
        <pt x="1225" y="494" on="0"/>
        <pt x="1200" y="422" on="1"/>
        <pt x="1049" y="-8" on="1"/>
      </contour>
      <contour>
        <pt x="555" y="739" on="1"/>
        <pt x="555" y="965" on="0"/>
        <pt x="354" y="1294" on="0"/>
        <pt x="184" y="1360" on="1"/>
        <pt x="248" y="1485" on="1"/>
        <pt x="384" y="1436" on="0"/>
        <pt x="599" y="1218" on="0"/>
        <pt x="719" y="911" on="0"/>
        <pt x="719" y="739" on="1"/>
        <pt x="719" y="567" on="0"/>
        <pt x="599" y="261" on="0"/>
        <pt x="383" y="42" on="0"/>
        <pt x="248" y="-6" on="1"/>
        <pt x="184" y="119" on="1"/>
        <pt x="355" y="185" on="0"/>
        <pt x="555" y="515" on="0"/>
      </contour>
    </TTGlyph>
    <TTGlyph name="glyph00046" xMin="231" yMin="0" xMax="1012" yMax="1462">
      <contour>
        <pt x="1012" y="735" on="1"/>
        <pt x="391" y="735" on="1"/>
        <pt x="391" y="0" on="1"/>
        <pt x="231" y="0" on="1"/>
        <pt x="231" y="1462" on="1"/>
        <pt x="391" y="1462" on="1"/>
        <pt x="391" y="877" on="1"/>
        <pt x="1012" y="877" on="1"/>
      </contour>
    </TTGlyph>
    <TTGlyph name="glyph00047" xMin="137" yMin="0" xMax="1288" yMax="1462">
      <contour>
        <pt x="244" y="801" on="1"/>
        <pt x="516" y="537" on="1"/>
        <pt x="580" y="474" on="0"/>
        <pt x="639" y="362" on="1"/>
        <pt x="647" y="362" on="1"/>
        <pt x="633" y="551" on="0"/>
        <pt x="633" y="748" on="1"/>
        <pt x="633" y="1462" on="1"/>
        <pt x="793" y="1462" on="1"/>
        <pt x="793" y="748" on="1"/>
        <pt x="793" y="554" on="0"/>
        <pt x="774" y="362" on="1"/>
        <pt x="782" y="362" on="1"/>
        <pt x="847" y="472" on="0"/>
        <pt x="911" y="537" on="1"/>
        <pt x="1180" y="801" on="1"/>
        <pt x="1288" y="694" on="1"/>
        <pt x="737" y="141" on="1"/>
        <pt x="1180" y="141" on="1"/>
        <pt x="1180" y="0" on="1"/>
        <pt x="244" y="0" on="1"/>
        <pt x="244" y="141" on="1"/>
        <pt x="690" y="141" on="1"/>
        <pt x="137" y="692" on="1"/>
      </contour>
    </TTGlyph>
    <TTGlyph name="glyph00048" xMin="137" yMin="0" xMax="1288" yMax="1483">
      <contour>
        <pt x="137" y="956" on="1"/>
        <pt x="666" y="1483" on="1"/>
        <pt x="758" y="1483" on="1"/>
        <pt x="1288" y="954" on="1"/>
        <pt x="1180" y="848" on="1"/>
        <pt x="911" y="1112" on="1"/>
        <pt x="818" y="1205" on="0"/>
        <pt x="782" y="1264" on="1"/>
        <pt x="774" y="1264" on="1"/>
        <pt x="781" y="1184" on="1"/>
        <pt x="793" y="1039" on="0"/>
        <pt x="793" y="901" on="1"/>
        <pt x="793" y="0" on="1"/>
        <pt x="633" y="0" on="1"/>
        <pt x="633" y="901" on="1"/>
        <pt x="633" y="1077" on="0"/>
        <pt x="647" y="1264" on="1"/>
        <pt x="639" y="1264" on="1"/>
        <pt x="599" y="1191" on="0"/>
        <pt x="516" y="1112" on="1"/>
        <pt x="244" y="848" on="1"/>
      </contour>
    </TTGlyph>
    <TTGlyph name="glyph00049" xMin="137" yMin="0" xMax="1130" yMax="1462">
      <contour>
        <pt x="1026" y="836" on="1"/>
        <pt x="602" y="836" on="1"/>
        <pt x="602" y="0" on="1"/>
        <pt x="442" y="0" on="1"/>
        <pt x="442" y="1321" on="1"/>
        <pt x="137" y="1321" on="1"/>
        <pt x="137" y="1462" on="1"/>
        <pt x="1130" y="1462" on="1"/>
        <pt x="1130" y="1321" on="1"/>
        <pt x="602" y="1321" on="1"/>
        <pt x="602" y="977" on="1"/>
        <pt x="1026" y="977" on="1"/>
      </contour>
    </TTGlyph>
    <TTGlyph name="glyph00050" xMin="162" yMin="-6" xMax="1217" yMax="1462">
      <contour>
        <pt x="573" y="977" on="1"/>
        <pt x="1217" y="977" on="1"/>
        <pt x="1217" y="836" on="1"/>
        <pt x="553" y="836" on="1"/>
        <pt x="432" y="-6" on="1"/>
        <pt x="272" y="6" on="1"/>
        <pt x="463" y="1321" on="1"/>
        <pt x="162" y="1321" on="1"/>
        <pt x="162" y="1462" on="1"/>
        <pt x="1217" y="1462" on="1"/>
        <pt x="1217" y="1321" on="1"/>
        <pt x="625" y="1321" on="1"/>
      </contour>
      <contour>
        <pt x="1057" y="0" on="1"/>
        <pt x="1057" y="651" on="1"/>
        <pt x="1217" y="651" on="1"/>
        <pt x="1217" y="0" on="1"/>
      </contour>
      <contour>
        <pt x="764" y="145" on="1"/>
        <pt x="764" y="651" on="1"/>
        <pt x="924" y="651" on="1"/>
        <pt x="924" y="145" on="1"/>
      </contour>
    </TTGlyph>
    <TTGlyph name="glyph00051" xMin="115" yMin="-10" xMax="1589" yMax="1507">
      <contour>
        <pt x="236" y="-10" on="1"/>
        <pt x="115" y="88" on="1"/>
        <pt x="578" y="741" on="1"/>
        <pt x="125" y="1407" on="1"/>
        <pt x="256" y="1497" on="1"/>
        <pt x="735" y="793" on="1"/>
        <pt x="735" y="690" on="1"/>
      </contour>
      <contour>
        <pt x="969" y="690" on="1"/>
        <pt x="969" y="793" on="1"/>
        <pt x="1450" y="1507" on="1"/>
        <pt x="1579" y="1407" on="1"/>
        <pt x="1128" y="741" on="1"/>
        <pt x="1589" y="88" on="1"/>
        <pt x="1468" y="-10" on="1"/>
      </contour>
      <contour>
        <pt x="909" y="537" on="1"/>
        <pt x="1212" y="82" on="1"/>
        <pt x="1087" y="-2" on="1"/>
        <pt x="860" y="338" on="1"/>
        <pt x="639" y="-4" on="1"/>
        <pt x="508" y="84" on="1"/>
        <pt x="811" y="537" on="1"/>
      </contour>
    </TTGlyph>
    <TTGlyph name="glyph00052" xMin="162" yMin="0" xMax="1149" yMax="1462">
      <contour>
        <pt x="1149" y="1321" on="1"/>
        <pt x="729" y="1321" on="1"/>
        <pt x="729" y="141" on="1"/>
        <pt x="1149" y="141" on="1"/>
        <pt x="1149" y="0" on="1"/>
        <pt x="162" y="0" on="1"/>
        <pt x="162" y="141" on="1"/>
        <pt x="569" y="141" on="1"/>
        <pt x="569" y="1321" on="1"/>
        <pt x="162" y="1321" on="1"/>
        <pt x="162" y="1462" on="1"/>
        <pt x="1149" y="1462" on="1"/>
      </contour>
    </TTGlyph>
    <TTGlyph name="glyph00053" xMin="115" yMin="-10" xMax="1589" yMax="1462">
      <contour>
        <pt x="778" y="1020" on="1"/>
        <pt x="778" y="1462" on="1"/>
        <pt x="938" y="1462" on="1"/>
        <pt x="938" y="1020" on="1"/>
      </contour>
      <contour>
        <pt x="236" y="-10" on="1"/>
        <pt x="115" y="88" on="1"/>
        <pt x="578" y="741" on="1"/>
        <pt x="233" y="1253" on="1"/>
        <pt x="365" y="1343" on="1"/>
        <pt x="735" y="793" on="1"/>
        <pt x="735" y="690" on="1"/>
      </contour>
      <contour>
        <pt x="969" y="690" on="1"/>
        <pt x="969" y="793" on="1"/>
        <pt x="1333" y="1343" on="1"/>
        <pt x="1462" y="1243" on="1"/>
        <pt x="1128" y="741" on="1"/>
        <pt x="1589" y="88" on="1"/>
        <pt x="1468" y="-10" on="1"/>
      </contour>
    </TTGlyph>
    <TTGlyph name="glyph00054" xMin="137" yMin="0" xMax="1530" yMax="1483">
      <contour>
        <pt x="772" y="950" on="1"/>
        <pt x="930" y="950" on="1"/>
        <pt x="930" y="809" on="1"/>
        <pt x="930" y="503" on="0"/>
        <pt x="810" y="157" on="0"/>
        <pt x="547" y="0" on="0"/>
        <pt x="307" y="0" on="1"/>
        <pt x="244" y="0" on="1"/>
        <pt x="244" y="147" on="1"/>
        <pt x="307" y="147" on="1"/>
        <pt x="501" y="147" on="0"/>
        <pt x="691" y="258" on="0"/>
        <pt x="772" y="521" on="0"/>
        <pt x="772" y="813" on="1"/>
      </contour>
      <contour>
        <pt x="827" y="1276" on="1"/>
        <pt x="264" y="614" on="1"/>
        <pt x="137" y="723" on="1"/>
        <pt x="805" y="1483" on="1"/>
        <pt x="862" y="1483" on="1"/>
        <pt x="1530" y="723" on="1"/>
        <pt x="1405" y="614" on="1"/>
      </contour>
    </TTGlyph>
    <TTGlyph name="glyph00055" xMin="137" yMin="-6" xMax="1368" yMax="1485">
      <contour>
        <pt x="997" y="739" on="1"/>
        <pt x="997" y="515" on="0"/>
        <pt x="1197" y="186" on="0"/>
        <pt x="1368" y="119" on="1"/>
        <pt x="1303" y="-6" on="1"/>
        <pt x="1168" y="42" on="0"/>
        <pt x="955" y="260" on="0"/>
        <pt x="834" y="566" on="0"/>
        <pt x="834" y="739" on="1"/>
        <pt x="834" y="911" on="0"/>
        <pt x="953" y="1217" on="0"/>
        <pt x="1167" y="1436" on="0"/>
        <pt x="1303" y="1485" on="1"/>
        <pt x="1368" y="1360" on="1"/>
        <pt x="1197" y="1294" on="0"/>
        <pt x="997" y="964" on="0"/>
      </contour>
      <contour>
        <pt x="510" y="739" on="1"/>
        <pt x="510" y="962" on="0"/>
        <pt x="310" y="1293" on="0"/>
        <pt x="137" y="1360" on="1"/>
        <pt x="203" y="1485" on="1"/>
        <pt x="338" y="1436" on="0"/>
        <pt x="552" y="1219" on="0"/>
        <pt x="672" y="912" on="0"/>
        <pt x="672" y="739" on="1"/>
        <pt x="672" y="567" on="0"/>
        <pt x="552" y="260" on="0"/>
        <pt x="339" y="44" on="0"/>
        <pt x="203" y="-6" on="1"/>
        <pt x="137" y="119" on="1"/>
        <pt x="310" y="186" on="0"/>
        <pt x="510" y="518" on="0"/>
      </contour>
    </TTGlyph>
    <TTGlyph name="glyph00056" xMin="137" yMin="-6" xMax="1133" yMax="1485">
      <contour>
        <pt x="561" y="877" on="1"/>
        <pt x="973" y="877" on="1"/>
        <pt x="973" y="1462" on="1"/>
        <pt x="1133" y="1462" on="1"/>
        <pt x="1133" y="0" on="1"/>
        <pt x="973" y="0" on="1"/>
        <pt x="973" y="735" on="1"/>
        <pt x="561" y="735" on="1"/>
      </contour>
      <contour>
        <pt x="301" y="739" on="1"/>
        <pt x="301" y="517" on="0"/>
        <pt x="501" y="186" on="0"/>
        <pt x="672" y="119" on="1"/>
        <pt x="608" y="-6" on="1"/>
        <pt x="473" y="42" on="0"/>
        <pt x="258" y="260" on="0"/>
        <pt x="137" y="565" on="0"/>
        <pt x="137" y="739" on="1"/>
        <pt x="137" y="911" on="0"/>
        <pt x="256" y="1217" on="0"/>
        <pt x="472" y="1436" on="0"/>
        <pt x="608" y="1485" on="1"/>
        <pt x="672" y="1360" on="1"/>
        <pt x="501" y="1293" on="0"/>
        <pt x="301" y="963" on="0"/>
      </contour>
    </TTGlyph>
    <TTGlyph name="glyph00057" xMin="115" yMin="-10" xMax="1589" yMax="1485">
      <contour>
        <pt x="1014" y="1485" on="1"/>
        <pt x="1214" y="1253" on="1"/>
        <pt x="1108" y="1157" on="1"/>
        <pt x="907" y="1391" on="1"/>
      </contour>
      <contour>
        <pt x="844" y="1333" on="1"/>
        <pt x="1044" y="1102" on="1"/>
        <pt x="936" y="1006" on="1"/>
        <pt x="737" y="1239" on="1"/>
      </contour>
      <contour>
        <pt x="236" y="-10" on="1"/>
        <pt x="115" y="88" on="1"/>
        <pt x="578" y="741" on="1"/>
        <pt x="233" y="1253" on="1"/>
        <pt x="365" y="1343" on="1"/>
        <pt x="735" y="793" on="1"/>
        <pt x="735" y="690" on="1"/>
      </contour>
      <contour>
        <pt x="969" y="690" on="1"/>
        <pt x="969" y="793" on="1"/>
        <pt x="1333" y="1343" on="1"/>
        <pt x="1462" y="1243" on="1"/>
        <pt x="1128" y="741" on="1"/>
        <pt x="1589" y="88" on="1"/>
        <pt x="1468" y="-10" on="1"/>
      </contour>
    </TTGlyph>
    <TTGlyph name="glyph00058" xMin="137" yMin="-20" xMax="1126" yMax="1503">
      <contour>
        <pt x="137" y="952" on="1"/>
        <pt x="137" y="1008" on="0"/>
        <pt x="170" y="1085" on="1"/>
        <pt x="348" y="1503" on="1"/>
        <pt x="498" y="1450" on="1"/>
        <pt x="322" y="1047" on="1"/>
        <pt x="305" y="1011" on="0"/>
        <pt x="305" y="971" on="1"/>
        <pt x="305" y="934" on="0"/>
        <pt x="346" y="883" on="0"/>
        <pt x="399" y="858" on="1"/>
        <pt x="446" y="838" on="1"/>
        <pt x="625" y="760" on="0"/>
        <pt x="625" y="608" on="1"/>
        <pt x="625" y="548" on="0"/>
        <pt x="594" y="475" on="1"/>
        <pt x="375" y="-20" on="1"/>
        <pt x="225" y="33" on="1"/>
        <pt x="440" y="514" on="1"/>
        <pt x="459" y="554" on="0"/>
        <pt x="459" y="590" on="1"/>
        <pt x="459" y="627" on="0"/>
        <pt x="416" y="678" on="0"/>
        <pt x="362" y="702" on="1"/>
        <pt x="315" y="723" on="1"/>
        <pt x="137" y="800" on="0"/>
      </contour>
      <contour>
        <pt x="639" y="952" on="1"/>
        <pt x="639" y="1017" on="0"/>
        <pt x="670" y="1085" on="1"/>
        <pt x="850" y="1503" on="1"/>
        <pt x="999" y="1450" on="1"/>
        <pt x="823" y="1047" on="1"/>
        <pt x="807" y="1013" on="0"/>
        <pt x="807" y="971" on="1"/>
        <pt x="807" y="934" on="0"/>
        <pt x="847" y="883" on="0"/>
        <pt x="901" y="858" on="1"/>
        <pt x="948" y="838" on="1"/>
        <pt x="1126" y="760" on="0"/>
        <pt x="1126" y="608" on="1"/>
        <pt x="1126" y="550" on="0"/>
        <pt x="1094" y="475" on="1"/>
        <pt x="874" y="-20" on="1"/>
        <pt x="727" y="33" on="1"/>
        <pt x="942" y="514" on="1"/>
        <pt x="961" y="554" on="0"/>
        <pt x="961" y="590" on="1"/>
        <pt x="961" y="627" on="0"/>
        <pt x="918" y="678" on="0"/>
        <pt x="864" y="702" on="1"/>
        <pt x="817" y="723" on="1"/>
        <pt x="639" y="799" on="0"/>
      </contour>
    </TTGlyph>
</ttFont>
